<svg xmlns="http://www.w3.org/2000/svg" viewBox="0 0 2000 2000">
  <rect width="2000" height="2000" fill="#F9F6EE"/>
  <g transform="translate(64 1409) scale(1 -1)" fill="#1a1a1a">
    <path d="M290 -2C572 -2 647 346 405 451C253 516 184 528 167 619C153 693 220 758 313 758C395 758 433 721 440 656C442 638 449 628 463 625C477 622 486 631 489 651L507 771C510 789 502 802 483 806C443 814 405 819 372 819C180 819 75 706 64 600C50 473 132 389 269 347C526 267 467 59 283 59C179 59 116 114 84 214C79 232 72 241 63 240C54 239 48 229 48 210V82C48 65 55 54 70 47C119 26 189 -2 290 -2Z"/>
    <path transform="translate(597 0)" d="M82 8H301C321 8 332 17 330 30C327 44 318 53 301 56L291 58C256 65 244 87 246 116L283 611L538 31C545 16 555 8 569 8C583 8 593 14 600 30L883 634L914 116C916 87 903 65 868 58L858 56C840 52 832 45 830 30C828 17 839 8 859 8H1145C1165 8 1176 17 1174 30C1171 44 1162 53 1146 57L1106 66C1069 75 1052 94 1050 134L1019 665C1018 738 1054 764 1105 771C1122 774 1132 780 1135 792C1137 803 1125 810 1105 810H916C899 810 888 804 881 788L616 218L380 787C374 802 362 810 345 810H154C134 810 123 802 125 789C128 775 137 765 154 762L175 758C218 749 237 711 234 671L178 133C174 94 159 75 121 66L81 57C65 53 56 45 53 30C51 17 62 8 82 8Z"/>
  </g>
</svg>
